<?xml version="1.0" encoding="utf-8"?>
<!-- Generator: Adobe Illustrator 24.0.3, SVG Export Plug-In . SVG Version: 6.00 Build 0)  -->
<svg version="1.1" id="Layer_1" xmlns="http://www.w3.org/2000/svg" xmlns:xlink="http://www.w3.org/1999/xlink" x="0px" y="0px"
	 width="18.9px" height="20px" viewBox="0 0 18.9 20" style="enable-background:new 0 0 18.9 20;" xml:space="preserve">
<style type="text/css">
	.st0{fill:#FDC38A;}
</style>
<g>
	<path class="st0" d="M16.8,1.1h-2.1V0h-2.1v1.1H6.3V0H4.2v1.1H2.1C0.9,1.1,0,2,0,3.2v14.7C0,19.1,0.9,20,2.1,20h14.7
		c1.2,0,2.1-0.9,2.1-2.1V3.2C18.9,2,18,1.1,16.8,1.1z M2.1,3.2h2.1v1.1h2.1V3.2h6.3v1.1h2.1V3.2h2.1l0,2.1H2.1V3.2z M2.1,17.9V7.4
		h14.7l0,10.5H2.1z"/>
	<rect x="4.2" y="9.5" class="st0" width="2.1" height="2.1"/>
	<rect x="8.4" y="9.5" class="st0" width="2.1" height="2.1"/>
	<rect x="12.6" y="9.5" class="st0" width="2.1" height="2.1"/>
	<rect x="4.2" y="13.7" class="st0" width="2.1" height="2.1"/>
	<rect x="8.4" y="13.7" class="st0" width="2.1" height="2.1"/>
	<rect x="12.6" y="13.7" class="st0" width="2.1" height="2.1"/>
</g>
</svg>
